<svg width="1440" height="1024" viewBox="0 0 1440 1024" fill="none" xmlns="http://www.w3.org/2000/svg">
<rect width="1440" height="1024" fill="#24273A"/>
<path d="M404.772 922.257C409.257 922.257 412.893 737.741 412.893 510.128C412.893 282.516 409.257 98 404.772 98C400.287 98 396.651 282.516 396.651 510.128C396.651 737.741 400.287 922.257 404.772 922.257Z" fill="#EE99A0" stroke="#EE99A0" stroke-width="2" stroke-miterlimit="15.1181"/>
<path d="M421.015 641.634C556.869 641.634 667 531.502 667 395.648C667 259.794 556.869 149.663 421.015 149.663C285.161 149.663 175.029 259.794 175.029 395.648C175.029 531.502 285.161 641.634 421.015 641.634Z" stroke="#EE99A0" stroke-width="12" stroke-miterlimit="15.1181"/>
<path d="M318.668 924.214C323.153 924.214 326.789 739.259 326.789 511.107C326.789 282.954 323.153 98 318.668 98C314.182 98 310.546 282.954 310.546 511.107C310.546 739.259 314.182 924.214 318.668 924.214Z" fill="#EE99A0" stroke="#EE99A0" stroke-width="2" stroke-miterlimit="15.1181"/>
<path d="M555.475 922.77C559.413 920.624 474.105 756.475 364.934 556.135C255.763 355.794 164.07 195.125 160.131 197.271C156.193 199.418 241.501 363.566 350.672 563.907C459.843 764.247 551.536 924.916 555.475 922.77Z" fill="#EE99A0" stroke="#EE99A0" stroke-width="2" stroke-miterlimit="16"/>
<path d="M532.801 749.159C532.801 737.486 537.08 727.46 545.638 719.081C554.16 710.702 564.401 706.513 576.36 706.513C588.177 706.513 598.31 710.738 606.761 719.188C615.247 727.639 619.49 737.79 619.49 749.643C619.49 761.566 615.229 771.682 606.707 779.989C598.149 788.332 587.819 792.504 575.716 792.504C565.009 792.504 555.395 788.798 546.873 781.386C537.492 773.186 532.801 762.444 532.801 749.159ZM545.423 749.32C545.423 758.487 548.502 766.024 554.661 771.933C560.784 777.841 567.856 780.795 575.877 780.795C584.578 780.795 591.919 777.787 597.898 771.771C603.878 765.684 606.868 758.272 606.868 749.535C606.868 740.691 603.914 733.279 598.006 727.299C592.133 721.283 584.865 718.275 576.199 718.275C567.57 718.275 560.283 721.283 554.339 727.299C548.395 733.243 545.423 740.583 545.423 749.32ZM635.228 791V702.431L695.706 765.702V708.07H708.221V796.049L647.742 732.938V791H635.228ZM740.662 708.07V758.021C740.662 765.147 741.826 770.357 744.153 773.651C747.627 778.414 752.514 780.795 758.816 780.795C765.154 780.795 770.06 778.414 773.533 773.651C775.861 770.465 777.024 765.255 777.024 758.021V708.07H789.539V761.459C789.539 770.196 786.818 777.393 781.375 783.051C775.252 789.353 767.732 792.504 758.816 792.504C749.9 792.504 742.399 789.353 736.312 783.051C730.869 777.393 728.147 770.196 728.147 761.459V708.07H740.662ZM837.557 755.658L863.23 791H847.923L824.236 757.055H821.98V791H809.466V708.07H824.129C835.086 708.07 842.999 710.129 847.869 714.247C853.24 718.83 855.926 724.882 855.926 732.401C855.926 738.274 854.243 743.323 850.877 747.548C847.511 751.773 843.071 754.477 837.557 755.658ZM821.98 746.151H825.955C837.807 746.151 843.733 741.622 843.733 732.562C843.733 724.076 837.968 719.833 826.438 719.833H821.98V746.151Z" fill="#CAD3F5"/>
<path d="M926.448 755.175L899.378 708.07H913.772L932.732 741.21L951.746 708.07H966.141L938.963 755.175V791H926.448V755.175ZM1016.84 770.858H981.341L972.103 791H958.621L999.656 702.86L1039.24 791H1025.54L1016.84 770.858ZM1011.74 759.096L999.441 730.897L986.551 759.096H1011.74ZM1049.66 791V702.431L1110.14 765.702V708.07H1122.65V796.049L1062.18 732.938V791H1049.66ZM1191.94 770.858H1156.44L1147.2 791H1133.72L1174.75 702.86L1214.34 791H1200.64L1191.94 770.858ZM1186.84 759.096L1174.54 730.897L1161.65 759.096H1186.84ZM1252.85 755.658L1278.52 791H1263.22L1239.53 757.055H1237.27V791H1224.76V708.07H1239.42C1250.38 708.07 1258.29 710.129 1263.16 714.247C1268.53 718.83 1271.22 724.882 1271.22 732.401C1271.22 738.274 1269.54 743.323 1266.17 747.548C1262.8 751.773 1258.36 754.477 1252.85 755.658ZM1237.27 746.151H1241.25C1253.1 746.151 1259.03 741.622 1259.03 732.562C1259.03 724.076 1253.26 719.833 1241.73 719.833H1237.27V746.151Z" fill="#8AADF4"/>
</svg>
