<svg width="1440" height="1024" viewBox="0 0 1440 1024" fill="none" xmlns="http://www.w3.org/2000/svg">
<rect width="1440" height="1024" fill="#E6DFCD"/>
<g clip-path="url(#clip0_15_2)">
<path d="M1017.7 134.298H422.298V729.702H1017.7V134.298Z" fill="#E6DFCD"/>
<path d="M610.588 367.154C643.472 367.154 670.129 340.497 670.129 307.614C670.129 274.731 643.472 248.074 610.588 248.074C577.705 248.074 551.048 274.731 551.048 307.614C551.048 340.497 577.705 367.154 610.588 367.154Z" fill="#F25832"/>
<path d="M789.21 307.614H729.669V367.154H789.21V307.614Z" fill="#333333"/>
<path d="M789.21 248.074H729.669V307.614H789.21V248.074Z" fill="#3879A5"/>
<path d="M789.21 307.614H729.669V367.154C762.554 367.154 789.21 340.498 789.21 307.614Z" fill="#F25832"/>
<path d="M789.209 307.614V367.154H891.619L789.209 307.614Z" fill="#F6CA03"/>
<path d="M818.98 307.614C835.421 307.614 848.75 294.285 848.75 277.844C848.75 261.402 835.421 248.074 818.98 248.074C802.538 248.074 789.209 261.402 789.209 277.844C789.209 294.285 802.538 307.614 818.98 307.614Z" fill="#F25832"/>
<path d="M670.129 248.074C637.245 248.074 610.588 274.73 610.588 307.614H729.669C729.669 274.73 703.013 248.074 670.129 248.074Z" fill="#F6CA03"/>
<path d="M729.669 367.154V307.614H670.129C670.129 340.498 696.785 367.154 729.669 367.154Z" fill="#3879A5"/>
<path d="M670.129 307.614H610.588V367.154C643.473 367.154 670.129 340.498 670.129 307.614Z" fill="#333333"/>
<path d="M944.61 509.873H498.057V521.781H944.61V509.873Z" fill="#333333"/>
<path d="M505.166 629.371V585.638C505.166 574.195 511.037 567.056 522.099 567.056C533.162 567.056 539.033 574.195 539.033 585.638V629.371C539.033 640.814 533.162 647.953 522.099 647.953C511.037 647.953 505.166 640.814 505.166 629.371ZM530.453 627.894V587.109C530.453 578.612 527.518 575.213 522.099 575.213C516.681 575.213 513.746 578.612 513.746 587.109V627.894C513.746 636.39 516.681 639.79 522.099 639.79C527.518 639.79 530.453 636.39 530.453 627.894Z" fill="#333333"/>
<path d="M553.483 642.964V585.18C553.483 573.736 559.24 566.597 570.19 566.597C581.139 566.597 586.897 573.736 586.897 585.18V642.964C586.897 645.345 584.98 647.269 582.604 647.269C580.228 647.269 578.317 645.345 578.317 642.964V586.65C578.317 578.154 575.495 574.754 570.19 574.754C564.885 574.754 562.063 578.154 562.063 586.65V642.964C562.063 645.345 560.145 647.269 557.77 647.269C555.394 647.269 553.483 645.345 553.483 642.964Z" fill="#333333"/>
<path d="M601.568 629.371V571.587C601.568 569.205 603.485 567.282 605.855 567.282C608.225 567.282 610.148 569.205 610.148 571.587V627.9C610.148 636.396 613.083 639.796 618.501 639.796C623.919 639.796 626.855 636.396 626.855 627.9V571.587C626.855 569.205 628.772 567.282 631.142 567.282C633.511 567.282 635.429 569.205 635.429 571.587V629.371C635.429 640.814 629.558 647.953 618.495 647.953C607.433 647.953 601.562 640.814 601.562 629.371H601.568Z" fill="#333333"/>
<path d="M676.297 611.354C679.459 613.164 682.733 617.814 682.733 624.494V642.964C682.733 645.345 680.816 647.269 678.441 647.269C676.065 647.269 674.154 645.345 674.154 642.964V626.876C674.154 620.416 670.766 615.432 665.234 615.432H659.251V642.964C659.251 645.345 657.333 647.269 654.958 647.269C652.582 647.269 650.671 645.345 650.671 642.964V574.528C650.671 569.771 652.701 567.728 657.554 567.728H665.115C676.404 567.728 682.954 575.207 682.954 588.913V594.236C682.954 602.053 680.923 607.829 676.291 611.342L676.297 611.354ZM674.6 592.432V590.735C674.6 580.536 671.552 575.665 664.329 575.665H659.251V607.501H664.329C671.552 607.501 674.6 602.631 674.6 592.432Z" fill="#333333"/>
<path d="M746.281 571.587V603.649C746.281 613.503 741.881 620.19 733.641 621.779V642.964C733.641 645.345 731.723 647.269 729.354 647.269C726.984 647.269 725.067 645.345 725.067 642.964V621.779C716.826 620.195 712.426 613.509 712.426 603.649V571.587C712.426 569.205 714.343 567.282 716.713 567.282C719.083 567.282 721.006 569.205 721.006 571.587V602.179C721.006 610.675 723.941 614.075 729.36 614.075C734.778 614.075 737.713 610.675 737.713 602.179V571.587C737.713 569.205 739.63 567.282 742 567.282C744.37 567.282 746.287 569.205 746.287 571.587H746.281Z" fill="#333333"/>
<path d="M793.913 585.18V642.964C793.913 645.345 791.996 647.269 789.626 647.269C787.257 647.269 785.34 645.345 785.34 642.964V618.493H768.632V642.964C768.632 645.345 766.715 647.269 764.34 647.269C761.964 647.269 760.053 645.345 760.053 642.964V585.18C760.053 573.736 765.923 566.597 776.986 566.597C788.049 566.597 793.919 573.736 793.919 585.18H793.913ZM785.334 610.562V586.656C785.334 578.16 782.398 574.76 776.98 574.76C771.562 574.76 768.627 578.16 768.627 586.656V610.562H785.334Z" fill="#333333"/>
<path d="M808.59 642.964V585.18C808.59 573.736 814.348 566.597 825.297 566.597C836.247 566.597 842.004 573.736 842.004 585.18V642.964C842.004 645.345 840.087 647.269 837.712 647.269C835.336 647.269 833.425 645.345 833.425 642.964V586.65C833.425 578.154 830.602 574.754 825.297 574.754C819.992 574.754 817.17 578.154 817.17 586.65V642.964C817.17 645.345 815.253 647.269 812.877 647.269C810.502 647.269 808.59 645.345 808.59 642.964Z" fill="#333333"/>
<path d="M890.542 585.18V642.964C890.542 645.345 888.625 647.269 886.255 647.269C883.885 647.269 881.968 645.345 881.968 642.964V618.493H865.261V642.964C865.261 645.345 863.344 647.269 860.968 647.269C858.592 647.269 856.681 645.345 856.681 642.964V585.18C856.681 573.736 862.552 566.597 873.614 566.597C884.677 566.597 890.548 573.736 890.548 585.18H890.542ZM881.962 610.562V586.656C881.962 578.16 879.027 574.76 873.608 574.76C868.19 574.76 865.255 578.16 865.255 586.656V610.562H881.962Z" fill="#333333"/>
<path d="M931.404 611.354C934.566 613.164 937.84 617.814 937.84 624.494V642.964C937.84 645.345 935.923 647.269 933.547 647.269C931.172 647.269 929.261 645.345 929.261 642.964V626.876C929.261 620.416 925.873 615.432 920.341 615.432H914.358V642.964C914.358 645.345 912.44 647.269 910.065 647.269C907.689 647.269 905.778 645.345 905.778 642.964V574.528C905.778 569.771 907.808 567.728 912.661 567.728H920.222C931.511 567.728 938.061 575.207 938.061 588.913V594.236C938.061 602.053 936.03 607.829 931.398 611.342L931.404 611.354ZM929.713 592.432V590.735C929.713 580.536 926.665 575.665 919.442 575.665H914.364V607.501H919.442C926.665 607.501 929.713 602.631 929.713 592.432Z" fill="#333333"/>
<path d="M876.734 530.712C884.955 530.712 891.619 524.048 891.619 515.827C891.619 507.606 884.955 500.942 876.734 500.942C868.513 500.942 861.849 507.606 861.849 515.827C861.849 524.048 868.513 530.712 876.734 530.712Z" fill="#F25832"/>
<path d="M732.224 674.312L729.664 685H724.832L720.544 668.488H724.992L727.872 679.624L730.432 668.488H734.432L737.184 679.592L739.968 668.488H744.096L739.808 685H734.944L732.224 674.312ZM754.041 685.352C748.441 685.352 745.401 682.088 745.401 676.968C745.401 671.496 748.345 668.136 753.241 668.136C758.553 668.136 760.281 671.88 760.281 675.464C760.281 677.256 760.153 678.024 760.153 678.024H750.137C750.393 680.584 752.025 681.832 754.969 681.832C757.401 681.832 759.545 681 759.545 681V684.36C759.545 684.36 757.433 685.352 754.041 685.352ZM750.169 675.144H755.897C755.929 672.776 754.969 671.56 753.209 671.56C751.417 671.56 750.393 672.712 750.169 675.144ZM771.935 685.352C769.791 685.352 768.479 684.52 767.487 683.4L766.943 685H763.295V664.872C763.295 663.88 762.847 663.624 761.887 663.592H761.599V660.584C761.599 660.584 762.655 660.2 764.511 660.2C766.943 660.2 768.063 661.288 768.063 663.592V670.248C768.063 670.248 769.311 668.136 772.447 668.136C777.119 668.136 779.039 672.008 779.039 676.424C779.039 681.672 776.319 685.352 771.935 685.352ZM768.063 680.648C768.063 680.648 769.023 681.576 770.719 681.576C773.055 681.576 774.111 679.624 774.111 676.648C774.111 673.8 773.119 672.136 770.815 672.136C768.959 672.136 768.063 673.576 768.063 673.576V680.648ZM809.631 685.352C807.647 685.352 806.591 684.552 806.239 682.824C805.727 683.528 804.223 685.352 801.247 685.352C796.703 685.352 794.495 681.896 794.495 677C794.495 672.488 796.703 668.136 801.695 668.136C803.519 668.136 804.703 668.744 805.503 669.416V664.872C805.503 663.88 805.023 663.624 804.095 663.592H803.775V660.584C803.775 660.584 804.959 660.2 806.687 660.2C809.119 660.2 810.239 661.288 810.239 663.592V680.712C810.239 681.736 810.783 681.96 811.743 681.96H811.999V685C811.999 685 811.007 685.352 809.631 685.352ZM802.719 681.384C804.511 681.384 805.503 679.912 805.503 679.912V672.872C805.503 672.872 804.575 671.912 802.911 671.912C800.639 671.912 799.423 673.832 799.423 676.808C799.423 679.72 800.607 681.384 802.719 681.384ZM822.541 685.352C816.941 685.352 813.901 682.088 813.901 676.968C813.901 671.496 816.845 668.136 821.741 668.136C827.053 668.136 828.781 671.88 828.781 675.464C828.781 677.256 828.653 678.024 828.653 678.024H818.637C818.893 680.584 820.525 681.832 823.469 681.832C825.901 681.832 828.045 681 828.045 681V684.36C828.045 684.36 825.933 685.352 822.541 685.352ZM818.669 675.144H824.397C824.429 672.776 823.469 671.56 821.709 671.56C819.917 671.56 818.893 672.712 818.669 675.144ZM840.35 685H835.262L829.822 668.488H834.654L838.046 679.624L841.502 668.488H845.854L840.35 685ZM855.478 685.352C849.878 685.352 846.838 682.088 846.838 676.968C846.838 671.496 849.782 668.136 854.678 668.136C859.99 668.136 861.718 671.88 861.718 675.464C861.718 677.256 861.59 678.024 861.59 678.024H851.574C851.83 680.584 853.462 681.832 856.406 681.832C858.838 681.832 860.982 681 860.982 681V684.36C860.982 684.36 858.87 685.352 855.478 685.352ZM851.606 675.144H857.334C857.366 672.776 856.406 671.56 854.646 671.56C852.854 671.56 851.83 672.712 851.606 675.144ZM868.989 685.352C866.077 685.352 864.765 683.656 864.765 680.552V664.872C864.765 663.944 864.381 663.656 863.549 663.624C863.453 663.592 863.133 663.592 863.069 663.592V660.584C863.069 660.584 864.253 660.2 865.885 660.2C868.349 660.2 869.533 661.288 869.533 663.592V679.816C869.533 681.32 869.949 681.768 871.005 681.768H871.421V685C871.421 685 870.525 685.352 868.989 685.352ZM881.531 685.352C876.507 685.352 873.307 682.088 873.307 676.712C873.307 671.336 876.571 668.136 881.531 668.136C886.523 668.136 889.723 671.336 889.723 676.712C889.723 682.12 886.491 685.352 881.531 685.352ZM881.531 681.896C883.707 681.896 884.827 680.104 884.827 676.68C884.827 673.288 883.739 671.592 881.531 671.592C879.291 671.592 878.203 673.288 878.203 676.68C878.203 680.104 879.291 681.896 881.531 681.896ZM900.828 681.576C902.908 681.576 904.156 679.784 904.156 676.68C904.156 673.896 903.196 672.136 900.892 672.136C898.94 672.136 898.108 673.608 898.108 673.608V680.648C898.492 680.872 899.324 681.576 900.828 681.576ZM902.044 685.352C900.22 685.352 898.972 684.744 898.108 684.04V692.168H893.34V672.776C893.34 671.752 892.86 671.528 891.868 671.528H891.58V668.488C891.58 668.488 892.54 668.136 894.012 668.136C896.06 668.136 897.116 668.936 897.404 670.696C897.82 669.928 899.42 668.136 902.332 668.136C907.324 668.136 909.084 671.944 909.084 676.488C909.084 681.32 906.908 685.352 902.044 685.352ZM919.978 685.352C914.378 685.352 911.338 682.088 911.338 676.968C911.338 671.496 914.282 668.136 919.178 668.136C924.49 668.136 926.218 671.88 926.218 675.464C926.218 677.256 926.09 678.024 926.09 678.024H916.074C916.33 680.584 917.962 681.832 920.906 681.832C923.338 681.832 925.482 681 925.482 681V684.36C925.482 684.36 923.37 685.352 919.978 685.352ZM916.106 675.144H921.834C921.866 672.776 920.906 671.56 919.146 671.56C917.354 671.56 916.33 672.712 916.106 675.144ZM929.809 685V672.776C929.809 671.784 929.361 671.528 928.337 671.528H928.049V668.488C928.049 668.488 929.009 668.136 930.481 668.136C932.273 668.136 933.489 668.68 933.905 670.696C934.897 669 936.529 668.136 937.969 668.136C939.121 668.136 939.601 668.488 939.601 668.488V672.488C939.601 672.488 938.833 672.232 937.745 672.232C936.177 672.232 935.089 672.936 934.577 673.672V685H929.809Z" fill="#F25832"/>
</g>
<defs>
<clipPath id="clip0_15_2">
<rect width="596" height="596" fill="white" transform="translate(422 134)"/>
</clipPath>
</defs>
</svg>

