<svg width="100" height="301" viewBox="0 0 100 301" fill="none" xmlns="http://www.w3.org/2000/svg">
<path d="M100 200.5V100.5H0V200.5H100Z" fill="#3879A5"/>
<path d="M0 301.5C55.23 301.5 100 256.73 100 201.5H0V301.5Z" fill="#F6CA03"/>
<path d="M50 100.5C77.6142 100.5 100 78.1142 100 50.5C100 22.8858 77.6142 0.5 50 0.5C22.3858 0.5 0 22.8858 0 50.5C0 78.1142 22.3858 100.5 50 100.5Z" fill="#F25832"/>
<path d="M100 97.5H50V147.5C77.61 147.5 100 125.11 100 97.5Z" fill="#F6CA03"/>
<path d="M50 47.5V97.5H100C100 69.89 77.61 47.5 50 47.5Z" fill="#F6CA03"/>
<path d="M50 199.5V149.5H0C0 177.11 22.39 199.5 50 199.5Z" fill="#F25832"/>
<path d="M100 199.5V149.5H50V199.5H100Z" fill="#333333"/>
<path d="M75 251.5C88.8071 251.5 100 240.307 100 226.5C100 212.693 88.8071 201.5 75 201.5C61.1929 201.5 50 212.693 50 226.5C50 240.307 61.1929 251.5 75 251.5Z" fill="#F25832"/>
</svg>
