<?xml version="1.0" standalone="no"?>
<!DOCTYPE svg PUBLIC "-//W3C//DTD SVG 20010904//EN"
 "http://www.w3.org/TR/2001/REC-SVG-20010904/DTD/svg10.dtd">
<svg version="1.0" xmlns="http://www.w3.org/2000/svg"
 width="700.000000pt" height="700.000000pt" viewBox="0 0 700.000000 700.000000"
 preserveAspectRatio="xMidYMid meet">
<metadata>
Created by potrace 1.14, written by Peter Selinger 2001-2017
</metadata>
<g transform="translate(0.000000,700.000000) scale(0.100000,-0.100000)"
fill="#000000" stroke="none">
<path d="M1356 4650 c-508 -81 -888 -501 -913 -1011 -15 -304 95 -588 313
-806 149 -150 336 -250 546 -294 146 -30 362 -23 493 15 183 54 321 134 457
264 163 157 283 375 313 572 13 86 18 87 32 7 68 -397 369 -726 773 -844 l95
-28 1545 -3 1545 -2 -306 177 c-168 98 -581 338 -917 533 l-612 355 1 225 c1
207 2 221 14 176 50 -182 202 -332 385 -381 30 -8 91 -15 135 -15 151 0 263
47 371 154 79 79 126 159 149 258 75 317 -153 627 -480 655 -251 21 -493 -152
-560 -400 -13 -49 -14 -39 -14 176 l-1 227 -535 0 -535 0 -1 -497 c-1 -306 -5
-474 -10 -435 -49 375 -303 703 -659 849 -266 109 -582 102 -842 -19 l-88 -41
-91 42 c-135 63 -257 91 -414 96 -71 2 -156 0 -189 -5z"/>
</g>
</svg>
