<?xml version="1.0" standalone="no"?>
<!DOCTYPE svg PUBLIC "-//W3C//DTD SVG 20010904//EN"
 "http://www.w3.org/TR/2001/REC-SVG-20010904/DTD/svg10.dtd">
<svg version="1.0" xmlns="http://www.w3.org/2000/svg"
 width="700.000000pt" height="700.000000pt" viewBox="0 0 700.000000 700.000000"
 preserveAspectRatio="xMidYMid meet">
<metadata>
Created by potrace 1.14, written by Peter Selinger 2001-2017
</metadata>
<g transform="translate(0.000000,700.000000) scale(0.100000,-0.100000)"
fill="#000000" stroke="none">
<path d="M2829 6388 c-10 -32 -18 -146 -24 -328 -3 -85 -9 -158 -13 -161 -4
-4 -34 -21 -67 -39 -253 -138 -481 -344 -632 -570 -25 -39 -49 -70 -52 -70 -6
0 -44 60 -90 143 -37 66 -179 292 -200 318 -10 13 -22 21 -26 18 -9 -10 29
-98 150 -344 l114 -231 -49 -114 c-42 -99 -90 -242 -104 -314 -3 -11 -9 -44
-15 -72 -38 -191 -34 -479 9 -679 109 -501 423 -928 866 -1175 l80 -44 2 -256
c4 -688 25 -1685 37 -1747 2 -10 4 -34 4 -53 1 -34 15 -69 25 -60 11 12 23
177 31 455 8 259 23 1175 24 1499 1 99 2 108 19 101 61 -27 244 -76 340 -91
80 -14 113 -23 116 -34 3 -8 8 -244 11 -525 11 -871 23 -1274 41 -1367 6 -31
24 -38 25 -10 0 9 2 26 4 37 15 79 37 857 39 1407 1 131 2 238 3 238 0 0 17
-28 36 -62 19 -35 44 -81 57 -103 13 -22 37 -65 53 -95 146 -266 496 -880 640
-1125 154 -261 217 -349 217 -305 0 25 -204 440 -395 805 -31 61 -84 162 -117
225 -34 63 -73 138 -88 165 -15 28 -53 100 -85 160 -107 204 -147 280 -165
310 -39 68 -131 247 -128 250 2 2 50 5 108 6 551 16 1090 323 1395 794 120
185 217 418 249 600 3 17 8 41 11 55 13 57 16 103 22 260 6 189 -8 321 -51
488 -56 215 -147 407 -277 587 -70 97 -89 119 -187 218 -312 317 -751 503
-1205 512 -59 1 -109 4 -111 6 -2 2 -7 57 -10 123 -7 136 -15 196 -27 196 -15
0 -22 -68 -31 -282 -2 -44 -4 -48 -27 -50 -14 0 -30 -2 -36 -3 -5 -1 -32 -5
-60 -9 -27 -4 -59 -9 -70 -11 -47 -7 -192 -48 -252 -70 -36 -14 -71 -25 -78
-25 -9 0 -13 26 -14 98 -1 85 -9 228 -16 287 -1 11 -3 30 -4 43 0 12 -5 22
-11 22 -5 0 -10 -1 -11 -2z m856 -413 c120 -7 151 -12 281 -45 590 -148 1056
-611 1210 -1203 36 -137 52 -265 52 -412 -1 -116 -5 -169 -23 -295 -21 -144
-99 -367 -180 -515 -119 -219 -332 -453 -535 -588 -201 -133 -452 -234 -652
-263 -16 -2 -43 -6 -60 -9 -18 -3 -88 -8 -154 -11 l-122 -7 -1 934 c-1 1109
-10 1940 -25 2379 -1 33 1 35 34 40 19 3 46 5 60 4 14 -2 66 -5 115 -9z m-282
-43 c-13 -274 -26 -1428 -27 -2369 0 -414 -2 -753 -3 -753 -2 0 -18 30 -38 68
-19 37 -47 90 -63 117 -15 28 -54 100 -86 160 -33 61 -76 139 -96 175 -21 36
-55 99 -77 140 -22 41 -56 104 -76 140 l-35 65 -6 855 c-4 470 -9 959 -12
1085 l-5 230 73 27 c141 51 325 96 438 105 12 1 15 -9 13 -45z m-609 -209 c-4
-113 -17 -1167 -18 -1500 -1 -172 -4 -309 -7 -305 -4 4 -21 34 -39 67 -113
206 -546 976 -611 1087 l-31 52 21 35 c88 156 284 374 432 485 92 68 239 157
249 151 4 -2 6 -35 4 -72z m-701 -795 c26 -51 69 -133 95 -183 27 -49 78 -146
114 -215 36 -69 100 -190 143 -270 43 -80 94 -176 115 -215 20 -38 77 -144
125 -234 l88 -163 2 -397 c0 -218 -1 -404 -3 -413 -3 -14 -18 -9 -86 33 -230
142 -421 332 -563 559 -152 245 -242 551 -246 846 -1 95 8 243 18 295 3 13 7
35 10 49 3 14 7 36 10 50 3 14 8 35 11 47 16 76 101 303 114 303 3 0 27 -42
53 -92z m952 -1783 c75 -137 157 -287 182 -334 26 -47 57 -103 70 -124 l24
-39 -48 7 c-77 10 -212 45 -295 77 l-78 30 0 321 c0 176 2 318 5 315 3 -2 66
-116 140 -253z"/>
</g>
</svg>
